<svg width="512" height="512" viewBox="0 0 512 512" fill="none" xmlns="http://www.w3.org/2000/svg">
<rect width="512" height="512" rx="100" fill="white"/>
<path fill-rule="evenodd" clip-rule="evenodd" d="M293.552 175.479L270.707 153.194C268.983 151.524 266.677 150.591 264.277 150.591C261.878 150.591 259.572 151.524 257.848 153.194L242.459 168.198C241.618 169.042 240.616 169.706 239.513 170.153C238.409 170.599 237.227 170.817 236.037 170.795H190.495C189.302 170.819 188.117 170.601 187.011 170.155C185.904 169.708 184.9 169.043 184.057 168.198L168.668 153.194C166.943 151.524 164.638 150.591 162.238 150.591C159.838 150.591 157.533 151.524 155.808 153.194L132.963 175.479C132.125 176.294 131.459 177.268 131.004 178.345C130.55 179.422 130.315 180.579 130.315 181.748C130.315 182.918 130.55 184.075 131.004 185.152C131.459 186.229 132.125 187.203 132.963 188.018L155.808 210.319C157.537 211.981 159.841 212.91 162.238 212.91C164.635 212.91 166.939 211.981 168.668 210.319L184.057 195.298C184.902 194.457 185.907 193.794 187.013 193.348C188.119 192.902 189.303 192.682 190.495 192.702H236.037C237.227 192.683 238.408 192.904 239.511 193.35C240.614 193.796 241.616 194.458 242.459 195.298L257.848 210.319C259.576 211.981 261.88 212.91 264.277 212.91C266.675 212.91 268.979 211.981 270.707 210.319L293.552 188.018C294.394 187.206 295.064 186.232 295.521 185.154C295.979 184.077 296.214 182.919 296.214 181.748C296.214 180.578 295.979 179.42 295.521 178.342C295.064 177.265 294.394 176.291 293.552 175.479ZM358.852 99.8569C358.852 99.8661 358.841 99.8708 358.834 99.8643L336.007 77.5969C334.281 75.9309 331.976 75 329.577 75C327.179 75 324.874 75.9309 323.147 77.5969L307.808 92.5684C306.965 93.4086 305.963 94.0713 304.86 94.5173C303.757 94.9633 302.576 95.1835 301.386 95.165H255.795C254.603 95.1848 253.419 94.9652 252.313 94.5192C251.207 94.0732 250.202 93.4099 249.357 92.5684L233.902 77.5969C232.176 75.9309 229.871 75 227.472 75C225.074 75 222.769 75.9309 221.042 77.5969L198.263 99.8323C197.425 100.649 196.758 101.625 196.303 102.703C195.848 103.781 195.614 104.94 195.614 106.11C195.614 107.281 195.848 108.439 196.303 109.517C196.758 110.596 197.425 111.572 198.263 112.388L221.108 134.673C222.837 136.335 225.141 137.263 227.538 137.263C229.935 137.263 232.239 136.335 233.968 134.673L249.357 119.652C250.202 118.81 251.207 118.147 252.313 117.701C253.419 117.255 254.603 117.036 255.795 117.055H301.337C302.526 117.037 303.708 117.257 304.811 117.703C305.914 118.149 306.916 118.812 307.759 119.652L323.147 134.673C324.876 136.335 327.18 137.263 329.577 137.263C331.974 137.263 334.279 136.335 336.007 134.673L358.852 112.388C359.695 111.574 360.365 110.599 360.822 109.52C361.28 108.442 361.516 107.282 361.516 106.11C361.516 104.938 361.28 103.779 360.822 102.7C360.368 101.629 359.704 100.66 358.87 99.8494C358.863 99.843 358.852 99.8477 358.852 99.8569ZM293.552 335.466L270.707 357.767C268.979 359.429 266.675 360.357 264.277 360.357C261.88 360.357 259.576 359.429 257.848 357.767L242.459 342.746C241.616 341.906 240.614 341.243 239.511 340.797C238.408 340.351 237.227 340.131 236.037 340.149H190.495C189.303 340.129 188.119 340.349 187.013 340.795C185.907 341.241 184.902 341.904 184.057 342.746L168.668 357.767C166.939 359.429 164.635 360.357 162.238 360.357C159.841 360.357 157.537 359.429 155.808 357.767L132.963 335.466C132.125 334.651 131.459 333.676 131.004 332.599C130.55 331.522 130.315 330.365 130.315 329.196C130.315 328.027 130.55 326.87 131.004 325.793C131.459 324.716 132.125 323.741 132.963 322.926L155.808 300.625C157.537 298.963 159.841 298.035 162.238 298.035C164.635 298.035 166.939 298.963 168.668 300.625L184.057 315.646C184.902 316.487 185.907 317.151 187.013 317.597C188.119 318.043 189.303 318.262 190.495 318.242H236.037C237.227 318.261 238.408 318.041 239.511 317.595C240.614 317.149 241.616 316.486 242.459 315.646L257.848 300.625C259.576 298.963 261.88 298.035 264.277 298.035C266.675 298.035 268.979 298.963 270.707 300.625L293.552 322.926C294.394 323.739 295.064 324.713 295.521 325.79C295.979 326.867 296.214 328.025 296.214 329.196C296.214 330.366 295.979 331.525 295.521 332.602C295.064 333.679 294.394 334.653 293.552 335.466ZM358.852 411.087C358.852 411.078 358.841 411.074 358.835 411.08L336.007 433.397C334.283 435.067 331.977 436 329.577 436C327.178 436 324.872 435.067 323.147 433.397L307.808 418.392C306.967 417.549 305.965 416.884 304.862 416.438C303.758 415.992 302.576 415.774 301.386 415.796H255.795C254.602 415.772 253.417 415.99 252.311 416.436C251.204 416.882 250.2 417.548 249.357 418.392L233.902 433.397C232.178 435.067 229.872 436 227.472 436C225.073 436 222.767 435.067 221.042 433.397L198.263 411.112C197.425 410.296 196.758 409.32 196.303 408.241C195.848 407.163 195.614 406.005 195.614 404.834C195.614 403.664 195.848 402.505 196.303 401.427C196.758 400.349 197.425 399.373 198.263 398.556L221.108 376.272C222.837 374.609 225.141 373.681 227.538 373.681C229.935 373.681 232.239 374.609 233.968 376.272L249.357 391.292C250.202 392.134 251.207 392.797 252.313 393.243C253.419 393.689 254.603 393.909 255.795 393.889H301.337C302.526 393.908 303.708 393.687 304.811 393.241C305.914 392.795 306.916 392.133 307.759 391.292L323.147 376.272C324.876 374.609 327.18 373.681 329.577 373.681C331.974 373.681 334.279 374.609 336.007 376.272L358.852 398.556C359.695 399.37 360.365 400.346 360.822 401.424C361.28 402.503 361.516 403.662 361.516 404.834C361.516 406.006 361.28 407.166 360.822 408.244C360.368 409.315 359.704 410.284 358.87 411.095C358.863 411.101 358.852 411.097 358.852 411.087ZM390.78 188.035C391.622 187.221 392.292 186.245 392.749 185.167C393.207 184.088 393.443 182.928 393.443 181.757C393.443 180.585 393.207 179.425 392.749 178.347C392.292 177.268 391.622 176.293 390.78 175.479L383.356 168.198L367.934 153.194C366.21 151.524 363.904 150.591 361.505 150.591C359.105 150.591 356.799 151.524 355.075 153.194L339.686 168.215L332.23 175.479C331.391 176.295 330.725 177.271 330.27 178.349C329.815 179.428 329.581 180.586 329.581 181.757C329.581 182.927 329.815 184.086 330.27 185.164C330.725 186.242 331.391 187.218 332.23 188.035L339.67 195.282L355.058 210.303C356.787 211.965 359.091 212.893 361.488 212.893C363.885 212.893 366.189 211.965 367.918 210.303L383.307 195.282L390.78 188.035ZM390.78 335.466C391.621 334.653 392.291 333.679 392.748 332.602C393.206 331.525 393.442 330.366 393.442 329.196C393.442 328.025 393.206 326.867 392.748 325.79C392.291 324.713 391.621 323.739 390.78 322.926L383.356 315.646L367.967 300.625C366.239 298.963 363.935 298.035 361.537 298.035C359.14 298.035 356.836 298.963 355.108 300.625L339.719 315.646L332.263 322.926C331.425 323.741 330.759 324.716 330.304 325.793C329.849 326.87 329.615 328.027 329.615 329.196C329.615 330.365 329.849 331.522 330.304 332.599C330.759 333.676 331.425 334.651 332.263 335.466L339.702 342.729L355.091 357.75C356.82 359.412 359.124 360.341 361.521 360.341C363.918 360.341 366.222 359.412 367.951 357.75L383.34 342.729L390.78 335.466ZM444.337 112.388C445.179 111.574 445.849 110.599 446.307 109.52C446.764 108.442 447 107.282 447 106.11C447 104.938 446.764 103.779 446.307 102.7C445.849 101.621 445.179 100.646 444.337 99.8323L436.88 92.5684L421.491 77.5969C419.763 75.9347 417.459 75.0064 415.062 75.0064C412.664 75.0064 410.36 75.9347 408.632 77.5969L393.21 92.5684L385.754 99.8323C384.916 100.649 384.249 101.625 383.794 102.703C383.339 103.781 383.105 104.94 383.105 106.11C383.105 107.281 383.339 108.439 383.794 109.517C384.249 110.596 384.916 111.572 385.754 112.388L393.194 119.652L408.583 134.673C410.311 136.335 412.615 137.263 415.012 137.263C417.41 137.263 419.714 136.335 421.442 134.673L436.831 119.652L444.337 112.388ZM444.337 411.112C445.179 410.3 445.848 409.326 446.306 408.248C446.763 407.171 446.999 406.013 446.999 404.842C446.999 403.672 446.763 402.514 446.306 401.436C445.848 400.359 445.179 399.385 444.337 398.573L436.88 391.292L421.491 376.272C419.763 374.609 417.459 373.681 415.062 373.681C412.664 373.681 410.36 374.609 408.632 376.272L393.21 391.292L385.754 398.573C384.916 399.388 384.25 400.362 383.795 401.439C383.341 402.516 383.106 403.673 383.106 404.842C383.106 406.011 383.341 407.169 383.795 408.246C384.25 409.323 384.916 410.297 385.754 411.112L393.194 418.376L408.583 433.397C410.311 435.059 412.615 435.987 415.012 435.987C417.41 435.987 419.714 435.059 421.442 433.397L436.831 418.376L444.337 411.112ZM65.3662 251.052C64.5244 253.878 64.5221 257.083 65.3639 259.91C65.7925 261.349 66.5844 262.653 67.6632 263.697L90.5083 285.999C92.2367 287.661 94.5409 288.589 96.9381 288.589C99.3353 288.589 101.639 287.661 103.368 285.999L118.757 270.978C119.599 270.138 120.602 269.475 121.705 269.029C122.808 268.583 123.989 268.363 125.178 268.381H170.737C171.927 268.363 173.108 268.583 174.211 269.029C175.314 269.475 176.316 270.138 177.159 270.978L192.548 285.999C194.276 287.661 196.58 288.589 198.977 288.589C201.375 288.589 203.679 287.661 205.407 285.999L222.026 269.776C226.165 265.735 230.717 261.264 230.717 255.48C230.717 249.696 226.164 245.226 222.024 241.187L205.407 224.979C203.683 223.309 201.377 222.375 198.977 222.375C196.578 222.375 194.272 223.309 192.548 224.979L177.159 239.983C176.316 240.823 175.314 241.486 174.211 241.932C173.108 242.378 171.927 242.598 170.737 242.58H125.178C123.989 242.598 122.808 242.378 121.705 241.932C120.602 241.486 119.599 240.823 118.757 239.983L103.368 224.979C101.643 223.309 99.3378 222.375 96.9381 222.375C94.5385 222.375 92.2328 223.309 90.5083 224.979L67.6632 247.263C66.5857 248.308 65.7947 249.613 65.3662 251.052Z" fill="url(#paint0_linear_4004_30)"/>
<defs>
<linearGradient id="paint0_linear_4004_30" x1="65.019" y1="255.48" x2="446.997" y2="255.48" gradientUnits="userSpaceOnUse">
<stop stop-color="#4DE53B"/>
<stop offset="0.52" stop-color="#00CA98"/>
<stop offset="1" stop-color="#005DD1"/>
</linearGradient>
</defs>
</svg>
