<svg width="3078" height="602" viewBox="0 0 3078 602" fill="none" xmlns="http://www.w3.org/2000/svg">
<path d="M1058.74 47H1101.93L988.979 215.73H967.046L900.973 122.371V262.991H861.206V47H891.748L977.569 167.785L1058.74 47ZM1057.51 262.991V164.708L1097.01 105.683V262.991H1057.51Z" fill="white"/>
<path d="M1194.24 225.852H1305.95V263.264H1154.4V47H1194.24V225.852Z" fill="white"/>
<path d="M1009.34 494.437L1036.19 523.436C1019.98 538.36 999.771 548.235 978.042 551.854C956.313 555.473 934 552.68 913.83 543.817C893.66 534.953 876.505 520.402 864.46 501.941C852.414 483.48 846 461.908 846 439.858C846 417.809 852.414 396.236 864.46 377.775C876.505 359.314 893.66 344.763 913.83 335.9C934 327.036 956.313 324.243 978.042 327.863C999.771 331.482 1019.98 341.356 1036.19 356.28L1008.86 385.69C998.303 375.932 985.132 369.466 970.959 367.083C956.787 364.7 942.228 366.503 929.063 372.272C915.898 378.041 904.698 387.525 896.834 399.565C888.969 411.605 884.781 425.678 884.781 440.063C884.781 454.448 888.969 468.522 896.834 480.561C904.698 492.601 915.898 502.086 929.063 507.855C942.228 513.624 956.787 515.427 970.959 513.044C985.132 510.661 998.303 504.195 1008.86 494.437H1009.34Z" fill="white"/>
<path d="M1238.38 332.206H1278.21V548.196H1238.38V458.599H1120.78V548.196H1080.95V332.206H1120.78V421.529H1238.38V332.206Z" fill="white"/>
<path d="M1495.5 548.197L1423.27 368.045L1385.28 463.797H1432.57L1447.05 499.91H1371.07L1351.6 548.47H1311.15L1397.58 332.479H1449.79L1536.22 548.47L1495.5 548.197Z" fill="white"/>
<path d="M1720.16 510.784V548.196H1568.61V332.206H1608.44V510.784H1720.16Z" fill="white"/>
<path d="M1910.05 510.784V548.196H1758.49V332.206H1798.26V510.784H1910.05Z" fill="white"/>
<path d="M2125.76 332.206V369.617H1991.83V510.784H2125.76V548.196H1951.86V332.206H2125.76ZM2102.59 458.872H2017.73L2030.37 421.529H2102.59V458.872Z" fill="white"/>
<path d="M2204.68 332.206L2377.82 548.196H2331.56L2217.04 405.114V548.196H2177.34V332.206H2204.68ZM2373.51 332.206V496.9L2333.68 447.451V332.206H2373.51Z" fill="white"/>
<path d="M2536 427.344H2635.69C2636.17 431.566 2636.38 435.816 2636.31 440.065C2637.25 469.281 2627.06 497.763 2607.81 519.745C2597.92 530.944 2585.68 539.816 2571.97 545.728C2558.26 551.64 2543.41 554.445 2528.48 553.943C2498.8 553.214 2470.58 540.9 2449.85 519.63C2429.11 498.36 2417.51 469.818 2417.51 440.099C2417.51 410.381 2429.11 381.839 2449.85 360.569C2470.58 339.298 2498.8 326.985 2528.48 326.257C2546.44 326.217 2564.13 330.51 2580.07 338.773C2596.03 346.835 2609.87 358.552 2620.45 372.97L2587.79 395.541C2580.89 386.352 2571.96 378.885 2561.69 373.723C2551.41 368.491 2540.02 365.794 2528.48 365.857C2508.88 365.857 2490.07 373.654 2476.21 387.532C2462.34 401.41 2454.55 420.233 2454.55 439.86C2454.55 459.487 2462.34 478.31 2476.21 492.188C2490.07 506.066 2508.88 513.863 2528.48 513.863C2543.61 514.47 2558.45 509.615 2570.3 500.184C2581.33 490.994 2589.25 478.621 2592.99 464.756H2535.93L2536 427.344Z" fill="white"/>
<path d="M2855.16 369.617H2721.17V421.529H2832V458.872H2721.17V510.784H2855.16V548.196H2681.33V332.206H2855.16V369.617Z" fill="white"/>
<path d="M3026.73 505.246C3030.01 507.689 3032.69 510.852 3034.56 514.491C3036.44 518.131 3037.45 522.151 3037.53 526.244C3037.25 530.434 3035.83 534.469 3033.42 537.906C3031.01 541.344 3027.71 544.053 3023.86 545.736C3011.09 551.823 2996.99 554.576 2982.87 553.738C2951.71 553.323 2921.24 544.587 2894.58 528.432L2914.67 496.629C2935.85 509.059 2959.89 515.754 2984.44 516.053C3005.14 516.326 3019.35 512.77 3026.73 505.246ZM2996.46 421.257C3006.17 424.335 3013.75 426.866 3019.35 428.781C3026.54 431.459 3033.58 434.495 3040.47 437.878C3047.56 441.124 3054.2 445.286 3060.21 450.257C3065.24 454.905 3069.42 460.389 3072.58 466.467C3076.19 473.166 3078.05 480.672 3077.98 488.285C3078.11 499.333 3074.99 510.177 3069.03 519.473C3068.11 511.41 3064.88 503.786 3059.73 497.518C3053.74 490.156 3046.41 483.985 3038.14 479.325C3029.25 474.086 3019.97 469.514 3010.4 465.646C3000.93 461.816 2990.11 458.054 2977.95 454.361C2968.11 451.283 2960.45 448.821 2954.99 446.906C2947.96 444.389 2941.11 441.396 2934.49 437.946C2927.61 434.731 2921.24 430.538 2915.56 425.498C2910.7 420.665 2906.72 415.017 2903.81 408.81C2900.33 401.632 2898.57 393.739 2898.68 385.761C2898.53 377.464 2900.43 369.257 2904.2 361.87C2907.98 354.484 2913.53 348.148 2920.34 343.425C2935.92 331.934 2958.04 326.166 2986.69 326.121C3016.13 326.488 3044.91 334.831 3069.98 350.264L3050.58 381.11C3030.65 369.247 3008.03 362.657 2984.85 361.959C2973.39 361.304 2961.95 363.44 2951.5 368.184C2948.23 369.515 2945.41 371.767 2943.38 374.667C2941.36 377.568 2940.21 380.993 2940.09 384.53C2940.09 395.062 2947.9 403.612 2963.53 410.178C2968.63 412.366 2979.61 416.151 2996.46 421.531V421.257Z" fill="white"/>
<path fill-rule="evenodd" clip-rule="evenodd" d="M381.12 167.557L343.025 130.396C340.149 127.611 336.304 126.054 332.303 126.054C328.301 126.054 324.457 127.611 321.581 130.396L295.919 155.417C294.518 156.823 292.847 157.931 291.007 158.676C289.167 159.42 287.195 159.784 285.211 159.747H209.267C207.279 159.786 205.303 159.423 203.458 158.679C201.613 157.935 199.937 156.825 198.532 155.417L172.87 130.396C169.995 127.611 166.15 126.054 162.148 126.054C158.147 126.054 154.302 127.611 151.426 130.396L113.331 167.557C111.934 168.916 110.823 170.542 110.065 172.337C109.307 174.133 108.916 176.063 108.916 178.013C108.916 179.962 109.307 181.892 110.065 183.688C110.823 185.484 111.934 187.109 113.331 188.468L151.426 225.657C154.308 228.429 158.151 229.977 162.148 229.977C166.146 229.977 169.988 228.429 172.87 225.657L198.532 200.608C199.941 199.205 201.617 198.099 203.461 197.355C205.305 196.612 207.279 196.245 209.267 196.278H285.211C287.195 196.247 289.164 196.615 291.003 197.359C292.843 198.102 294.514 199.207 295.919 200.608L321.581 225.657C324.463 228.429 328.305 229.977 332.303 229.977C336.3 229.977 340.142 228.429 343.025 225.657L381.12 188.468C382.524 187.113 383.64 185.489 384.403 183.692C385.166 181.896 385.559 179.964 385.559 178.013C385.559 176.061 385.166 174.129 384.403 172.333C383.64 170.536 382.524 168.912 381.12 167.557ZM490.01 41.4923L451.915 4.33049C449.036 1.55238 445.192 0 441.193 0C437.194 0 433.35 1.55238 430.471 4.33049L404.892 29.2969C403.486 30.698 401.815 31.8031 399.976 32.5468C398.136 33.2906 396.167 33.6578 394.184 33.6269H318.158C316.17 33.6599 314.195 33.2938 312.351 32.55C310.507 31.8063 308.831 30.7001 307.422 29.2969L281.651 4.33049C278.772 1.55238 274.928 0 270.929 0C266.929 0 263.086 1.55238 260.207 4.33049L222.221 41.4101C220.823 42.7712 219.712 44.3989 218.954 46.197C218.195 47.9951 217.804 49.9272 217.804 51.879C217.804 53.8308 218.195 55.7628 218.954 57.5609C219.712 59.359 220.823 60.9867 222.221 62.3479L260.316 99.5097C263.199 102.281 267.041 103.83 271.038 103.83C275.036 103.83 278.878 102.281 281.76 99.5097L307.422 74.4611C308.831 73.0578 310.507 71.9517 312.351 71.2079C314.195 70.4642 316.17 70.098 318.158 70.131H394.101C396.085 70.1001 398.054 70.4674 399.894 71.2111C401.733 71.9549 403.404 73.0599 404.809 74.4611L430.471 99.5097C433.353 102.281 437.196 103.83 441.193 103.83C445.19 103.83 449.033 102.281 451.915 99.5097L490.01 62.3479C491.415 60.9906 492.532 59.3642 493.295 57.5656C494.058 55.7669 494.451 53.833 494.451 51.879C494.451 49.925 494.058 47.991 493.295 46.1924C492.532 44.3937 491.415 42.7673 490.01 41.4101V41.4923ZM381.12 434.35L343.025 471.539C340.142 474.311 336.3 475.859 332.303 475.859C328.305 475.859 324.463 474.311 321.581 471.539L295.919 446.49C294.514 445.089 292.843 443.984 291.003 443.24C289.164 442.497 287.195 442.129 285.211 442.16H209.267C207.279 442.127 205.305 442.493 203.461 443.237C201.617 443.981 199.941 445.087 198.532 446.49L172.87 471.539C169.988 474.311 166.146 475.859 162.148 475.859C158.151 475.859 154.308 474.311 151.426 471.539L113.331 434.35C111.934 432.991 110.823 431.366 110.065 429.57C109.307 427.774 108.916 425.844 108.916 423.895C108.916 421.945 109.307 420.015 110.065 418.219C110.823 416.423 111.934 414.798 113.331 413.439L151.426 376.25C154.308 373.478 158.151 371.93 162.148 371.93C166.146 371.93 169.988 373.478 172.87 376.25L198.532 401.299C199.941 402.702 201.617 403.808 203.461 404.552C205.305 405.296 207.279 405.662 209.267 405.629H285.211C287.195 405.66 289.164 405.292 291.003 404.549C292.843 403.805 294.514 402.7 295.919 401.299L321.581 376.25C324.463 373.478 328.305 371.93 332.303 371.93C336.3 371.93 340.142 373.478 343.025 376.25L381.12 413.439C382.524 414.794 383.64 416.418 384.403 418.215C385.166 420.011 385.559 421.943 385.559 423.895C385.559 425.846 385.166 427.778 384.403 429.574C383.64 431.371 382.524 432.995 381.12 434.35ZM490.01 560.415L451.915 597.659C449.039 600.443 445.194 602 441.193 602C437.191 602 433.347 600.443 430.471 597.659L404.892 572.638C403.49 571.231 401.819 570.123 399.979 569.379C398.139 568.635 396.168 568.271 394.184 568.308H318.158C316.169 568.268 314.193 568.632 312.348 569.376C310.503 570.12 308.827 571.229 307.422 572.638L281.651 597.659C278.775 600.443 274.93 602 270.929 602C266.927 602 263.083 600.443 260.207 597.659L222.221 560.497C220.823 559.136 219.712 557.508 218.954 555.71C218.195 553.912 217.804 551.98 217.804 550.028C217.804 548.076 218.195 546.144 218.954 544.346C219.712 542.548 220.823 540.92 222.221 539.559L260.316 502.397C263.199 499.626 267.041 498.078 271.038 498.078C275.036 498.078 278.878 499.626 281.76 502.397L307.422 527.446C308.831 528.849 310.507 529.955 312.351 530.699C314.195 531.443 316.17 531.809 318.158 531.776H394.101C396.085 531.807 398.054 531.44 399.894 530.696C401.733 529.952 403.404 528.847 404.809 527.446L430.471 502.397C433.353 499.626 437.196 498.078 441.193 498.078C445.19 498.078 449.033 499.626 451.915 502.397L490.01 539.559C491.415 540.916 492.532 542.543 493.295 544.342C494.058 546.14 494.451 548.074 494.451 550.028C494.451 551.982 494.058 553.916 493.295 555.715C492.532 557.513 491.415 559.14 490.01 560.497V560.415ZM543.25 188.495C544.655 187.138 545.772 185.512 546.535 183.713C547.298 181.914 547.691 179.98 547.691 178.026C547.691 176.072 547.298 174.138 546.535 172.34C545.772 170.541 544.655 168.915 543.25 167.557L530.871 155.417L505.155 130.396C502.279 127.611 498.435 126.054 494.433 126.054C490.432 126.054 486.587 127.611 483.711 130.396L458.049 155.444L445.616 167.557C444.218 168.919 443.107 170.546 442.348 172.344C441.589 174.143 441.199 176.075 441.199 178.026C441.199 179.978 441.589 181.91 442.348 183.708C443.107 185.506 444.218 187.134 445.616 188.495L458.022 200.581L483.684 225.63C486.566 228.401 490.408 229.949 494.406 229.949C498.403 229.949 502.245 228.401 505.128 225.63L530.789 200.581L543.25 188.495ZM543.25 434.35C544.654 432.995 545.771 431.371 546.533 429.574C547.296 427.778 547.689 425.846 547.689 423.895C547.689 421.943 547.296 420.011 546.533 418.215C545.771 416.418 544.654 414.794 543.25 413.439L530.871 401.299L505.21 376.25C502.328 373.478 498.485 371.93 494.488 371.93C490.49 371.93 486.648 373.478 483.766 376.25L458.104 401.299L445.671 413.439C444.274 414.798 443.163 416.423 442.405 418.219C441.646 420.015 441.255 421.945 441.255 423.895C441.255 425.844 441.646 427.774 442.405 429.57C443.163 431.366 444.274 432.991 445.671 434.35L458.077 446.463L483.738 471.511C486.621 474.283 490.463 475.831 494.46 475.831C498.458 475.831 502.3 474.283 505.182 471.511L530.844 446.463L543.25 434.35ZM632.559 62.3479C633.963 60.9906 635.081 59.3642 635.844 57.5656C636.607 55.7669 637 53.833 637 51.879C637 49.925 636.607 47.991 635.844 46.1924C635.081 44.3937 633.963 42.7673 632.559 41.4101L620.125 29.2969L594.463 4.33049C591.581 1.55871 587.739 0.0106634 583.742 0.0106634C579.744 0.0106634 575.902 1.55871 573.02 4.33049L547.303 29.2969L534.87 41.4101C533.472 42.7712 532.361 44.3989 531.602 46.197C530.843 47.9951 530.452 49.9272 530.452 51.879C530.452 53.8308 530.843 55.7628 531.602 57.5609C532.361 59.359 533.472 60.9867 534.87 62.3479L547.276 74.4611L572.937 99.5097C575.82 102.281 579.662 103.83 583.659 103.83C587.657 103.83 591.499 102.281 594.381 99.5097L620.043 74.4611L632.559 62.3479ZM632.559 560.497C633.963 559.142 635.079 557.518 635.842 555.722C636.605 553.925 636.998 551.994 636.998 550.042C636.998 548.09 636.605 546.158 635.842 544.362C635.079 542.566 633.963 540.942 632.559 539.587L620.125 527.446L594.463 502.397C591.581 499.626 587.739 498.078 583.742 498.078C579.744 498.078 575.902 499.626 573.02 502.397L547.303 527.446L534.87 539.587C533.473 540.945 532.362 542.571 531.604 544.367C530.845 546.162 530.455 548.092 530.455 550.042C530.455 551.991 530.845 553.921 531.604 555.717C532.362 557.513 533.473 559.138 534.87 560.497L547.276 572.61L572.937 597.659C575.82 600.431 579.662 601.979 583.659 601.979C587.657 601.979 591.499 600.431 594.381 597.659L620.043 572.61L632.559 560.497ZM0.360337 300.967C-0.192815 303.41 -0.107922 305.954 0.606809 308.354C1.32154 310.754 2.64198 312.929 4.44095 314.67L42.5361 351.859C45.4183 354.631 49.2606 356.179 53.2581 356.179C57.2555 356.179 61.0978 354.631 63.98 351.859L89.6415 326.811C91.0467 325.41 92.7183 324.304 94.5575 323.561C96.3967 322.817 98.3662 322.45 100.35 322.481H176.321C178.304 322.45 180.274 322.817 182.113 323.561C183.952 324.304 185.624 325.41 187.029 326.811L212.691 351.859C215.573 354.631 219.415 356.179 223.413 356.179C227.41 356.179 231.252 354.631 234.135 351.859L272.23 314.67C274.911 310.603 276.34 305.839 276.34 300.967C276.34 296.096 274.911 291.331 272.23 287.265L234.135 250.103C231.259 247.318 227.414 245.762 223.413 245.762C219.411 245.762 215.566 247.318 212.691 250.103L187.029 275.124C185.624 276.525 183.952 277.63 182.113 278.374C180.274 279.118 178.304 279.485 176.321 279.454H100.35C98.3662 279.485 96.3967 279.118 94.5575 278.374C92.7183 277.63 91.0467 276.525 89.6415 275.124L63.98 250.103C61.1043 247.318 57.2596 245.762 53.2581 245.762C49.2566 245.762 45.4117 247.318 42.5361 250.103L4.44095 287.265C2.64419 289.007 1.32524 291.183 0.610654 293.582C-0.10393 295.982 -0.190126 298.525 0.360337 300.967Z" fill="white"/>
</svg>
