<svg width="3088" height="602" viewBox="0 0 3088 602" fill="none" xmlns="http://www.w3.org/2000/svg">
<path d="M1044.26 44H1087.95L973.671 214.727H951.478L884.623 120.263V262.547H844.385V44H875.289L962.125 166.214L1044.26 44ZM1043.02 262.547V163.101L1082.98 103.377V262.547H1043.02Z" fill="#002444"/>
<path d="M1181.36 224.969H1294.4V262.823H1141.05V44H1181.36V224.969Z" fill="#002444"/>
<path d="M994.274 496.732L1021.44 526.075C1005.04 541.175 984.591 551.166 962.605 554.828C940.618 558.49 918.042 555.665 897.633 546.696C877.224 537.728 859.866 523.005 847.678 504.325C835.49 485.646 829 463.818 829 441.507C829 419.197 835.49 397.369 847.678 378.689C859.866 360.01 877.224 345.287 897.633 336.319C918.042 327.35 940.618 324.525 962.605 328.186C984.591 331.848 1005.04 341.839 1021.44 356.94L993.79 386.698C983.105 376.824 969.778 370.282 955.438 367.871C941.098 365.46 926.366 367.284 913.046 373.121C899.725 378.959 888.393 388.555 880.435 400.738C872.478 412.92 868.24 427.16 868.24 441.715C868.24 456.27 872.478 470.51 880.435 482.692C888.393 494.875 899.725 504.471 913.046 510.309C926.366 516.146 941.098 517.971 955.438 515.559C969.778 513.148 983.105 506.606 993.79 496.732H994.274Z" fill="#002444"/>
<path d="M1226.02 332.58H1266.33V551.127H1226.02V460.469H1107.04V551.127H1066.73V332.58H1107.04V422.961H1226.02V332.58Z" fill="#002444"/>
<path d="M1486.18 551.127L1413.11 368.843L1374.67 465.729H1422.51L1437.17 502.269H1360.29L1340.58 551.404H1299.65L1387.11 332.857H1439.93L1527.39 551.404L1486.18 551.127Z" fill="#002444"/>
<path d="M1713.51 513.272V551.127H1560.16V332.58H1600.47V513.272H1713.51Z" fill="#002444"/>
<path d="M1905.64 513.272V551.127H1752.29V332.58H1792.53V513.272H1905.64Z" fill="#002444"/>
<path d="M2123.9 332.58V370.435H1988.39V513.272H2123.9V551.127H1947.95V332.58H2123.9ZM2100.47 460.746H2014.6L2027.39 422.961H2100.47V460.746Z" fill="#002444"/>
<path d="M2203.75 332.58L2378.95 551.127H2332.14L2216.27 406.352V551.127H2176.1V332.58H2203.75ZM2374.59 332.58V499.224L2334.28 449.189V332.58H2374.59Z" fill="#002444"/>
<path d="M2539 428.845H2639.87C2640.36 433.118 2640.56 437.417 2640.49 441.717C2641.45 471.279 2631.14 500.098 2611.66 522.34C2601.66 533.671 2589.27 542.648 2575.4 548.63C2561.52 554.612 2546.5 557.45 2531.4 556.942C2501.36 556.205 2472.81 543.745 2451.83 522.223C2430.85 500.701 2419.1 471.822 2419.1 441.752C2419.1 411.681 2430.85 382.802 2451.83 361.28C2472.81 339.758 2501.36 327.298 2531.4 326.562C2549.56 326.521 2567.46 330.865 2583.59 339.226C2599.74 347.384 2613.74 359.239 2624.45 373.828L2591.41 396.665C2584.42 387.368 2575.38 379.813 2565 374.589C2554.59 369.296 2543.07 366.567 2531.4 366.631C2511.56 366.631 2492.53 374.52 2478.5 388.562C2464.47 402.605 2456.59 421.65 2456.59 441.51C2456.59 461.369 2464.47 480.414 2478.5 494.457C2492.53 508.499 2511.56 516.389 2531.4 516.389C2546.7 517.002 2561.72 512.09 2573.71 502.548C2584.86 493.248 2592.88 480.729 2596.66 466.7H2538.93L2539 428.845Z" fill="#002444"/>
<path d="M2861.94 370.435H2726.36V422.961H2838.5V460.746H2726.36V513.272H2861.94V551.127H2686.05V332.58H2861.94V370.435Z" fill="#002444"/>
<path d="M3035.54 507.669C3038.86 510.141 3041.57 513.34 3043.46 517.023C3045.36 520.706 3046.38 524.774 3046.46 528.915C3046.19 533.155 3044.75 537.237 3042.31 540.715C3039.87 544.194 3036.53 546.934 3032.64 548.638C3019.71 554.796 3005.44 557.582 2991.15 556.735C2959.63 556.315 2928.79 547.475 2901.83 531.129L2922.15 498.949C2943.58 511.527 2967.91 518.301 2992.74 518.603C3013.69 518.88 3028.07 515.281 3035.54 507.669ZM3004.91 422.686C3014.73 425.8 3022.4 428.361 3028.07 430.299C3035.34 433.008 3042.47 436.08 3049.44 439.503C3056.61 442.788 3063.33 446.999 3069.42 452.029C3074.5 456.732 3078.74 462.281 3081.93 468.43C3085.58 475.209 3087.46 482.804 3087.39 490.507C3087.52 501.686 3084.37 512.657 3078.34 522.064C3077.41 513.906 3074.14 506.191 3068.93 499.849C3062.86 492.4 3055.45 486.156 3047.09 481.441C3038.08 476.14 3028.7 471.514 3019.02 467.6C3009.43 463.725 2998.48 459.918 2986.18 456.181C2976.22 453.067 2968.48 450.575 2962.95 448.638C2955.83 446.092 2948.9 443.063 2942.2 439.572C2935.25 436.319 2928.8 432.077 2923.05 426.977C2918.14 422.086 2914.11 416.372 2911.16 410.091C2907.64 402.828 2905.87 394.842 2905.98 386.77C2905.82 378.374 2907.74 370.07 2911.56 362.596C2915.39 355.122 2921 348.711 2927.89 343.932C2943.66 332.306 2966.03 326.469 2995.03 326.423C3024.81 326.795 3053.93 335.237 3079.3 350.853L3059.67 382.063C3039.5 370.06 3016.61 363.392 2993.16 362.686C2981.57 362.023 2969.99 364.184 2959.42 368.984C2956.11 370.331 2953.25 372.61 2951.2 375.545C2949.15 378.48 2948 381.945 2947.87 385.524C2947.87 396.181 2955.78 404.831 2971.59 411.475C2976.75 413.69 2987.86 417.519 3004.91 422.963V422.686Z" fill="#002444"/>
<path fill-rule="evenodd" clip-rule="evenodd" d="M381.12 167.557L343.025 130.396C340.149 127.611 336.304 126.054 332.303 126.054C328.301 126.054 324.457 127.611 321.581 130.396L295.919 155.417C294.518 156.823 292.847 157.931 291.007 158.676C289.167 159.42 287.195 159.784 285.211 159.747H209.267C207.279 159.786 205.303 159.423 203.458 158.679C201.613 157.935 199.937 156.825 198.532 155.417L172.87 130.396C169.995 127.611 166.15 126.054 162.148 126.054C158.147 126.054 154.302 127.611 151.426 130.396L113.331 167.557C111.934 168.916 110.823 170.542 110.065 172.337C109.307 174.133 108.916 176.063 108.916 178.013C108.916 179.962 109.307 181.892 110.065 183.688C110.823 185.484 111.934 187.109 113.331 188.468L151.426 225.657C154.308 228.429 158.151 229.977 162.148 229.977C166.146 229.977 169.988 228.429 172.87 225.657L198.532 200.608C199.941 199.205 201.617 198.099 203.461 197.355C205.305 196.612 207.279 196.245 209.267 196.278H285.211C287.195 196.247 289.164 196.615 291.003 197.359C292.843 198.102 294.514 199.207 295.919 200.608L321.581 225.657C324.463 228.429 328.305 229.977 332.303 229.977C336.3 229.977 340.142 228.429 343.025 225.657L381.12 188.468C382.524 187.113 383.64 185.489 384.403 183.692C385.166 181.896 385.559 179.964 385.559 178.013C385.559 176.061 385.166 174.129 384.403 172.333C383.64 170.536 382.524 168.912 381.12 167.557ZM490.01 41.4923L451.915 4.33049C449.036 1.55238 445.192 0 441.193 0C437.194 0 433.35 1.55238 430.471 4.33049L404.892 29.2969C403.486 30.698 401.815 31.8031 399.976 32.5468C398.136 33.2906 396.167 33.6578 394.184 33.6269H318.158C316.17 33.6599 314.195 33.2938 312.351 32.55C310.507 31.8063 308.831 30.7001 307.422 29.2969L281.651 4.33049C278.772 1.55238 274.928 0 270.929 0C266.929 0 263.086 1.55238 260.207 4.33049L222.221 41.4101C220.823 42.7712 219.712 44.3989 218.954 46.197C218.195 47.9951 217.804 49.9272 217.804 51.879C217.804 53.8308 218.195 55.7628 218.954 57.5609C219.712 59.359 220.823 60.9867 222.221 62.3479L260.316 99.5097C263.199 102.281 267.041 103.83 271.038 103.83C275.036 103.83 278.878 102.281 281.76 99.5097L307.422 74.4611C308.831 73.0578 310.507 71.9517 312.351 71.2079C314.195 70.4642 316.17 70.098 318.158 70.131H394.101C396.085 70.1001 398.054 70.4674 399.894 71.2111C401.733 71.9549 403.404 73.0599 404.809 74.4611L430.471 99.5097C433.353 102.281 437.196 103.83 441.193 103.83C445.19 103.83 449.033 102.281 451.915 99.5097L490.01 62.3479C491.415 60.9906 492.532 59.3642 493.295 57.5656C494.058 55.7669 494.451 53.833 494.451 51.879C494.451 49.925 494.058 47.991 493.295 46.1924C492.532 44.3937 491.415 42.7673 490.01 41.4101V41.4923ZM381.12 434.35L343.025 471.539C340.142 474.311 336.3 475.859 332.303 475.859C328.305 475.859 324.463 474.311 321.581 471.539L295.919 446.49C294.514 445.089 292.843 443.984 291.003 443.24C289.164 442.497 287.195 442.129 285.211 442.16H209.267C207.279 442.127 205.305 442.493 203.461 443.237C201.617 443.981 199.941 445.087 198.532 446.49L172.87 471.539C169.988 474.311 166.146 475.859 162.148 475.859C158.151 475.859 154.308 474.311 151.426 471.539L113.331 434.35C111.934 432.991 110.823 431.366 110.065 429.57C109.307 427.774 108.916 425.844 108.916 423.895C108.916 421.945 109.307 420.015 110.065 418.219C110.823 416.423 111.934 414.798 113.331 413.439L151.426 376.25C154.308 373.478 158.151 371.93 162.148 371.93C166.146 371.93 169.988 373.478 172.87 376.25L198.532 401.299C199.941 402.702 201.617 403.808 203.461 404.552C205.305 405.296 207.279 405.662 209.267 405.629H285.211C287.195 405.66 289.164 405.292 291.003 404.549C292.843 403.805 294.514 402.7 295.919 401.299L321.581 376.25C324.463 373.478 328.305 371.93 332.303 371.93C336.3 371.93 340.142 373.478 343.025 376.25L381.12 413.439C382.524 414.794 383.64 416.418 384.403 418.215C385.166 420.011 385.559 421.943 385.559 423.895C385.559 425.846 385.166 427.778 384.403 429.574C383.64 431.371 382.524 432.995 381.12 434.35ZM490.01 560.415L451.915 597.659C449.039 600.443 445.194 602 441.193 602C437.191 602 433.347 600.443 430.471 597.659L404.892 572.638C403.49 571.231 401.819 570.123 399.979 569.379C398.139 568.635 396.168 568.271 394.184 568.308H318.158C316.169 568.268 314.193 568.632 312.348 569.376C310.503 570.12 308.827 571.229 307.422 572.638L281.651 597.659C278.775 600.443 274.93 602 270.929 602C266.927 602 263.083 600.443 260.207 597.659L222.221 560.497C220.823 559.136 219.712 557.508 218.954 555.71C218.195 553.912 217.804 551.98 217.804 550.028C217.804 548.076 218.195 546.144 218.954 544.346C219.712 542.548 220.823 540.92 222.221 539.559L260.316 502.397C263.199 499.626 267.041 498.078 271.038 498.078C275.036 498.078 278.878 499.626 281.76 502.397L307.422 527.446C308.831 528.849 310.507 529.955 312.351 530.699C314.195 531.443 316.17 531.809 318.158 531.776H394.101C396.085 531.807 398.054 531.44 399.894 530.696C401.733 529.952 403.404 528.847 404.809 527.446L430.471 502.397C433.353 499.626 437.196 498.078 441.193 498.078C445.19 498.078 449.033 499.626 451.915 502.397L490.01 539.559C491.415 540.916 492.532 542.543 493.295 544.342C494.058 546.14 494.451 548.074 494.451 550.028C494.451 551.982 494.058 553.916 493.295 555.715C492.532 557.513 491.415 559.14 490.01 560.497V560.415ZM543.25 188.495C544.655 187.138 545.772 185.512 546.535 183.713C547.298 181.914 547.691 179.98 547.691 178.026C547.691 176.072 547.298 174.138 546.535 172.34C545.772 170.541 544.655 168.915 543.25 167.557L530.871 155.417L505.155 130.396C502.279 127.611 498.435 126.054 494.433 126.054C490.432 126.054 486.587 127.611 483.711 130.396L458.049 155.444L445.616 167.557C444.218 168.919 443.107 170.546 442.348 172.344C441.589 174.143 441.199 176.075 441.199 178.026C441.199 179.978 441.589 181.91 442.348 183.708C443.107 185.506 444.218 187.134 445.616 188.495L458.022 200.581L483.684 225.63C486.566 228.401 490.408 229.949 494.406 229.949C498.403 229.949 502.245 228.401 505.128 225.63L530.789 200.581L543.25 188.495ZM543.25 434.35C544.654 432.995 545.771 431.371 546.533 429.574C547.296 427.778 547.689 425.846 547.689 423.895C547.689 421.943 547.296 420.011 546.533 418.215C545.771 416.418 544.654 414.794 543.25 413.439L530.871 401.299L505.21 376.25C502.328 373.478 498.485 371.93 494.488 371.93C490.49 371.93 486.648 373.478 483.766 376.25L458.104 401.299L445.671 413.439C444.274 414.798 443.163 416.423 442.405 418.219C441.646 420.015 441.255 421.945 441.255 423.895C441.255 425.844 441.646 427.774 442.405 429.57C443.163 431.366 444.274 432.991 445.671 434.35L458.077 446.463L483.738 471.511C486.621 474.283 490.463 475.831 494.46 475.831C498.458 475.831 502.3 474.283 505.182 471.511L530.844 446.463L543.25 434.35ZM632.559 62.3479C633.963 60.9906 635.081 59.3642 635.844 57.5656C636.607 55.7669 637 53.833 637 51.879C637 49.925 636.607 47.991 635.844 46.1924C635.081 44.3937 633.963 42.7673 632.559 41.4101L620.125 29.2969L594.463 4.33049C591.581 1.55871 587.739 0.0106634 583.742 0.0106634C579.744 0.0106634 575.902 1.55871 573.02 4.33049L547.303 29.2969L534.87 41.4101C533.472 42.7712 532.361 44.3989 531.602 46.197C530.843 47.9951 530.452 49.9272 530.452 51.879C530.452 53.8308 530.843 55.7628 531.602 57.5609C532.361 59.359 533.472 60.9867 534.87 62.3479L547.276 74.4611L572.937 99.5097C575.82 102.281 579.662 103.83 583.659 103.83C587.657 103.83 591.499 102.281 594.381 99.5097L620.043 74.4611L632.559 62.3479ZM632.559 560.497C633.963 559.142 635.079 557.518 635.842 555.722C636.605 553.925 636.998 551.994 636.998 550.042C636.998 548.09 636.605 546.158 635.842 544.362C635.079 542.566 633.963 540.942 632.559 539.587L620.125 527.446L594.463 502.397C591.581 499.626 587.739 498.078 583.742 498.078C579.744 498.078 575.902 499.626 573.02 502.397L547.303 527.446L534.87 539.587C533.473 540.945 532.362 542.571 531.604 544.367C530.845 546.162 530.455 548.092 530.455 550.042C530.455 551.991 530.845 553.921 531.604 555.717C532.362 557.513 533.473 559.138 534.87 560.497L547.276 572.61L572.937 597.659C575.82 600.431 579.662 601.979 583.659 601.979C587.657 601.979 591.499 600.431 594.381 597.659L620.043 572.61L632.559 560.497ZM0.360337 300.967C-0.192815 303.41 -0.107922 305.954 0.606809 308.354C1.32154 310.754 2.64198 312.929 4.44095 314.67L42.5361 351.859C45.4183 354.631 49.2606 356.179 53.2581 356.179C57.2555 356.179 61.0978 354.631 63.98 351.859L89.6415 326.811C91.0467 325.41 92.7183 324.304 94.5575 323.561C96.3967 322.817 98.3662 322.45 100.35 322.481H176.321C178.304 322.45 180.274 322.817 182.113 323.561C183.952 324.304 185.624 325.41 187.029 326.811L212.691 351.859C215.573 354.631 219.415 356.179 223.413 356.179C227.41 356.179 231.252 354.631 234.135 351.859L272.23 314.67C274.911 310.603 276.34 305.839 276.34 300.967C276.34 296.096 274.911 291.331 272.23 287.265L234.135 250.103C231.259 247.318 227.414 245.762 223.413 245.762C219.411 245.762 215.566 247.318 212.691 250.103L187.029 275.124C185.624 276.525 183.952 277.63 182.113 278.374C180.274 279.118 178.304 279.485 176.321 279.454H100.35C98.3662 279.485 96.3967 279.118 94.5575 278.374C92.7183 277.63 91.0467 276.525 89.6415 275.124L63.98 250.103C61.1043 247.318 57.2596 245.762 53.2581 245.762C49.2566 245.762 45.4117 247.318 42.5361 250.103L4.44095 287.265C2.64419 289.007 1.32524 291.183 0.610654 293.582C-0.10393 295.982 -0.190126 298.525 0.360337 300.967Z" fill="url(#paint0_linear_2017_2)"/>
<defs>
<linearGradient id="paint0_linear_2017_2" x1="0.0317006" y1="300.967" x2="636.995" y2="300.967" gradientUnits="userSpaceOnUse">
<stop stop-color="#4DE53B"/>
<stop offset="0.52" stop-color="#00CA98"/>
<stop offset="1" stop-color="#005DD1"/>
</linearGradient>
</defs>
</svg>
